<svg width="35" height="35" viewBox="0 0 35 35" fill="none" xmlns="http://www.w3.org/2000/svg">
<path d="M17.505 0C10.1995 0 8.06261 0.00754658 7.6473 0.0420705C6.14799 0.166679 5.21481 0.402812 4.19817 0.908995C3.41583 1.29812 2.79741 1.74904 2.18803 2.38134C1.07787 3.53422 0.404127 4.95262 0.160777 6.63876C0.042119 7.45727 0.00793288 7.62415 0.000893846 11.8052C-0.00111731 13.1988 0.000893846 15.033 0.000893846 17.4932C0.000893846 24.7953 0.00893772 26.9305 0.0441329 27.3452C0.164802 28.8045 0.394075 29.7227 0.878763 30.727C1.8049 32.6495 3.57271 34.0926 5.65627 34.6311C6.37827 34.8169 7.17468 34.9192 8.19735 34.9677C8.63075 34.9865 13.0482 35 17.4678 35C21.8883 35 26.3078 34.9946 26.7301 34.973C27.9147 34.9174 28.6025 34.825 29.3627 34.6284C31.4604 34.0872 33.196 32.6656 34.1412 30.7162C34.6159 29.7361 34.8572 28.783 34.9658 27.3998C34.9899 27.0982 35 22.2902 35 17.4885C35 12.6862 34.9889 7.88695 34.9648 7.58539C34.8552 6.17988 34.6138 5.23485 34.1231 4.23587C33.7209 3.41817 33.2744 2.80751 32.6258 2.18316C31.4674 1.07698 30.0516 0.40392 28.3642 0.160541C27.5467 0.0422743 27.3848 0.007247 23.2016 0H17.505Z" fill="url(#paint0_radial_98_4980)"/>
<path d="M17.505 0C10.1995 0 8.06261 0.00754658 7.6473 0.0420705C6.14799 0.166679 5.21481 0.402812 4.19817 0.908995C3.41583 1.29812 2.79741 1.74904 2.18803 2.38134C1.07787 3.53422 0.404127 4.95262 0.160777 6.63876C0.042119 7.45727 0.00793288 7.62415 0.000893846 11.8052C-0.00111731 13.1988 0.000893846 15.033 0.000893846 17.4932C0.000893846 24.7953 0.00893772 26.9305 0.0441329 27.3452C0.164802 28.8045 0.394075 29.7227 0.878763 30.727C1.8049 32.6495 3.57271 34.0926 5.65627 34.6311C6.37827 34.8169 7.17468 34.9192 8.19735 34.9677C8.63075 34.9865 13.0482 35 17.4678 35C21.8883 35 26.3078 34.9946 26.7301 34.973C27.9147 34.9174 28.6025 34.825 29.3627 34.6284C31.4604 34.0872 33.196 32.6656 34.1412 30.7162C34.6159 29.7361 34.8572 28.783 34.9658 27.3998C34.9899 27.0982 35 22.2902 35 17.4885C35 12.6862 34.9889 7.88695 34.9648 7.58539C34.8552 6.17988 34.6138 5.23485 34.1231 4.23587C33.7209 3.41817 33.2744 2.80751 32.6258 2.18316C31.4674 1.07698 30.0516 0.40392 28.3642 0.160541C27.5467 0.0422743 27.3848 0.007247 23.2016 0H17.505Z" fill="url(#paint1_radial_98_4980)"/>
<path d="M3 19.6327C3.38447 19.5214 3.76894 19.4936 4.15341 19.6049C4.53788 19.6884 4.86742 19.911 5.16951 20.1892C5.16951 20.1892 5.19697 20.1893 5.19697 20.1614C5.19697 20.1058 5.19697 20.0223 5.19697 19.9666C5.14205 19.6327 5.11458 19.2988 5.05966 18.9649C5.05966 18.8814 5.0322 18.8536 4.94981 18.8536C4.51042 18.8258 4.18087 18.6032 3.90625 18.2971C3.63163 17.991 3.43939 17.6293 3.27462 17.2675C3.27462 17.2397 3.24716 17.2119 3.24716 17.184C3.96117 17.184 4.53788 17.4623 5.00474 18.0466C5.00474 17.9632 5.0322 17.9353 5.0322 17.8797C5.0322 17.5736 5.0322 17.2953 5.0322 16.9893C5.0322 16.9614 5.00474 16.8779 4.97727 16.8779C4.40057 16.711 4.07102 16.2936 3.90625 15.7371C3.82386 15.4866 3.7964 15.2084 3.71401 14.9579C3.68655 14.8466 3.68655 14.7353 3.68655 14.624C4.42803 14.8745 4.89489 15.3753 5.05966 16.1266H5.08712C5.11458 16.071 5.14205 16.0153 5.14205 15.9319C5.19697 15.6258 5.22443 15.2919 5.27936 14.9858C5.30682 14.8745 5.33428 14.791 5.36174 14.6797C5.3892 14.5962 5.36174 14.5684 5.30682 14.5127C4.70265 14.2066 4.42803 13.6779 4.40057 13.0101C4.40057 12.8153 4.40057 12.6484 4.40057 12.4258C5.00473 12.7875 5.36174 13.2884 5.52652 13.9562H5.55398C5.58144 13.8449 5.6089 13.7614 5.66383 13.6501C5.77368 13.344 5.85606 13.038 5.96591 12.7319C5.99337 12.6484 5.99337 12.5649 5.91098 12.5093C5.58144 12.2588 5.36174 11.8971 5.27936 11.4797C5.22443 11.118 5.25189 10.7562 5.44413 10.4501L5.47159 10.4223C5.96591 10.8119 6.21307 11.3127 6.21307 11.9527H6.24053C6.26799 11.8693 6.32292 11.8136 6.35038 11.7301C6.48769 11.4797 6.625 11.2014 6.76231 10.951C6.81724 10.8675 6.78977 10.8397 6.73485 10.7562C6.46023 10.4501 6.35038 10.1162 6.35038 9.69882C6.32292 9.19795 6.46023 8.72491 6.625 8.22404C6.87216 8.55795 7.00947 8.91969 7.09186 9.28143C7.17424 9.67099 7.11932 10.0327 7.03693 10.3945C7.03693 10.3945 7.06439 10.3945 7.06439 10.4223C7.09186 10.3945 7.09186 10.3945 7.11932 10.3666C7.39394 10.0049 7.6411 9.64317 7.91572 9.28143C7.97064 9.22578 7.94318 9.17013 7.91572 9.11447C7.53125 8.391 7.53125 7.66752 7.94318 6.97186C7.97064 6.94404 7.97065 6.91621 7.99811 6.88839C8.35511 7.50056 8.4375 8.14056 8.19034 8.83621C8.2178 8.83621 8.2178 8.83621 8.24527 8.86404C8.30019 8.80839 8.35511 8.72491 8.41004 8.66926C8.68466 8.39099 8.98674 8.11273 9.26136 7.83447C9.42614 7.69534 9.42614 7.69534 9.28883 7.55621C9.15152 7.41708 9.12405 7.25013 9.09659 7.08317C9.06913 6.61013 9.20644 6.19273 9.4536 5.80317C9.50852 5.74752 9.53598 5.66404 9.59091 5.60839C9.59091 5.60839 9.61837 5.58056 9.64583 5.55273C9.70076 5.74752 9.72822 5.9423 9.75568 6.13708C9.83807 6.55447 9.70076 6.91621 9.56345 7.27795C9.50852 7.38926 9.50852 7.52839 9.4536 7.63969C9.42614 7.72317 9.34375 7.77882 9.26136 7.89013C9.61837 7.83447 9.97538 7.77882 10.3324 7.8623C10.6619 7.94578 10.9915 8.08491 11.2936 8.36317C11.1013 8.44665 10.964 8.53012 10.7992 8.58578C10.1676 8.75273 9.64583 8.6136 9.17898 8.14056C9.12405 8.08491 9.06913 8.05708 9.04167 8.11273C8.71212 8.47447 8.41004 8.80839 8.08049 9.17012C8.05303 9.19795 8.05303 9.22578 8.02557 9.28143C8.73958 9.00317 9.4536 8.91969 10.1676 9.2536C10.0578 9.42056 9.89299 9.53186 9.72822 9.64317C9.12405 9.94925 8.57481 9.8936 8.05303 9.47621C7.97064 9.39273 7.91572 9.42056 7.8608 9.50404C7.6411 9.83795 7.4214 10.1719 7.20171 10.5058C7.17424 10.5336 7.17424 10.5614 7.17424 10.6171C7.6411 10.3666 8.10795 10.3388 8.60227 10.5336C8.71212 10.5614 8.79451 10.6171 8.90436 10.6727C8.60227 10.9232 8.32765 11.118 7.97064 11.2014C7.61364 11.3127 7.28409 11.2849 6.95455 11.1179C6.89962 11.0901 6.8447 11.1179 6.81724 11.1736C6.67992 11.424 6.57008 11.7023 6.43277 11.9527C6.37784 12.064 6.32292 12.1753 6.29545 12.2588C6.26799 12.2866 6.29545 12.3423 6.26799 12.3979C6.78977 11.9806 7.31155 11.9527 7.91572 12.1475C7.83333 12.3423 7.72349 12.4536 7.58618 12.5649C7.17424 12.8988 6.70739 12.9266 6.21307 12.7875C6.10322 12.7597 6.0483 12.7597 6.02083 12.871C5.88352 13.2606 5.77367 13.6223 5.63636 14.0119C5.6089 14.0953 5.6089 14.151 5.58144 14.2345C5.58144 14.2345 5.6089 14.2345 5.6089 14.2623C5.71875 14.1788 5.80114 14.0675 5.91098 13.984C6.26799 13.7336 6.65246 13.6223 7.09186 13.7058C7.22917 13.7336 7.33902 13.7614 7.47633 13.8171C7.55871 13.8449 7.58617 13.9006 7.53125 13.984C7.17424 14.4849 6.70739 14.791 6.15814 14.9579C5.93845 15.0136 5.69129 15.0136 5.47159 15.0693C5.44413 15.0693 5.3892 15.1249 5.36174 15.1527C5.33428 15.431 5.27936 15.7371 5.2519 16.0153C5.2519 16.1266 5.22443 16.2379 5.22443 16.3493C5.22443 16.3771 5.22443 16.3771 5.2519 16.4606C5.58144 15.7927 6.0483 15.3475 6.78977 15.264C6.78977 15.5145 6.73485 15.7371 6.625 15.9597C6.43277 16.3771 6.10322 16.6832 5.69129 16.8779C5.55398 16.9336 5.41667 16.9614 5.27936 17.0171C5.25189 17.0171 5.19697 17.0727 5.19697 17.0727C5.19697 17.4066 5.19697 17.7406 5.19697 18.1023C5.19697 18.1301 5.22443 18.1301 5.22443 18.1579C5.25189 18.0745 5.30682 18.0466 5.33428 17.991C5.6089 17.5179 6.02083 17.2397 6.54261 17.1284C6.625 17.1006 6.67992 17.1006 6.67992 17.2119C6.625 17.5458 6.54261 17.8797 6.35038 18.1858C6.10322 18.5475 5.77368 18.8258 5.38921 18.9927C5.27936 19.0484 5.22443 19.0762 5.27936 19.2153C5.33428 19.3823 5.30682 19.5493 5.33428 19.6884C5.36174 19.9388 5.41667 20.1893 5.44413 20.4397C5.44413 20.4397 5.44413 20.4397 5.47159 20.4675C5.47159 20.4119 5.49905 20.384 5.49905 20.3562C5.6089 19.7162 5.91099 19.2432 6.48769 18.9371C6.54261 18.9093 6.625 18.9093 6.67992 18.8814C6.67992 18.9371 6.70739 19.0206 6.70739 19.0762C6.67992 19.4101 6.625 19.744 6.46023 20.0501C6.29545 20.4397 6.0483 20.7458 5.69129 20.9962C5.58144 21.0797 5.55398 21.191 5.6089 21.3023C5.69129 21.6362 5.80114 21.9701 5.91098 22.2762C5.91098 22.3319 5.96591 22.3597 5.99337 22.3875C6.02083 22.3319 6.0483 22.304 6.0483 22.2484C6.10322 21.5249 6.43277 20.9406 6.98201 20.4675C6.98201 20.4675 7.00947 20.4675 7.06439 20.4397C7.09186 20.6345 7.14678 20.8014 7.14678 20.9684C7.17424 21.5806 6.98201 22.1092 6.54261 22.5545C6.46023 22.6379 6.35038 22.7214 6.26799 22.8049C6.21307 22.8606 6.18561 22.8884 6.21307 22.9719C6.43277 23.3892 6.65246 23.7788 6.8447 24.1962C6.8447 24.1962 6.87216 24.1962 6.89962 24.224C6.78977 23.8066 6.76231 23.3893 6.87216 22.9997C6.98201 22.5823 7.22917 22.2762 7.55871 21.9701C7.58617 22.1092 7.6411 22.1927 7.66856 22.304C7.8608 23.111 7.69602 23.8066 7.20171 24.4745C7.14678 24.5579 7.11932 24.6414 7.20171 24.7249C7.47633 25.031 7.72348 25.3649 7.97064 25.671C7.99811 25.6988 8.02557 25.7266 8.08049 25.7266C8.05303 25.6432 8.02557 25.5875 7.99811 25.504C7.80587 25.0588 7.77841 24.6136 7.88826 24.1406C7.94318 23.8623 8.08049 23.584 8.30019 23.3614C8.46496 23.5562 8.54735 23.7788 8.62973 24.0014C8.73958 24.2797 8.73958 24.5579 8.71212 24.864C8.68466 25.1979 8.54735 25.5319 8.38258 25.8101C8.27273 25.9492 8.27273 25.9771 8.41004 26.0884C8.62974 26.2832 8.84943 26.4779 9.09659 26.6727C9.12405 26.7006 9.15152 26.6727 9.17898 26.7006C9.17898 26.6727 9.17898 26.6449 9.17898 26.6171C9.12405 26.3945 9.01421 26.1719 8.98674 25.9492C8.87689 25.4484 9.01421 24.9753 9.26136 24.5023C9.34375 24.6136 9.42614 24.6971 9.48106 24.8084C9.72822 25.1979 9.86553 25.6432 9.83807 26.0884C9.83807 26.3388 9.75568 26.6171 9.6733 26.8675C9.64583 26.9788 9.64583 27.0623 9.75568 27.1179C9.97538 27.2292 10.1676 27.3684 10.3873 27.4797C10.4148 27.5075 10.4697 27.5075 10.4972 27.5075C10.4972 27.4797 10.4972 27.424 10.4697 27.3962C10.2775 27.1179 10.1951 26.784 10.1676 26.4501C10.1402 26.1162 10.2225 25.7823 10.4148 25.4762C10.6894 25.6432 10.8816 25.8658 11.0189 26.1162C11.2936 26.6171 11.321 27.1179 11.1288 27.6466C11.0739 27.8136 11.0739 27.8136 11.2386 27.8692C11.4034 27.9249 11.5407 27.9806 11.7055 28.0362C11.733 28.0362 11.7879 28.0362 11.8428 28.064C11.6506 27.7301 11.5956 27.424 11.5407 27.0623C11.4858 26.7006 11.5682 26.3945 11.6231 26.0327C12.09 26.311 12.392 26.6727 12.5843 27.1458C12.7216 27.4797 12.7491 27.8414 12.7765 28.2032C12.7765 28.2588 12.804 28.3145 12.8589 28.3145C13.0511 28.3701 13.2708 28.3979 13.4631 28.4536C13.4905 28.4536 13.4905 28.4536 13.5729 28.4258C13.2983 28.2032 13.1061 27.9249 12.9962 27.591C12.8864 27.2571 12.8589 26.951 12.9687 26.5892C13.2159 26.6727 13.4631 26.784 13.6553 26.951C14.1496 27.3684 14.4517 27.8971 14.4792 28.5649C14.4792 28.6762 14.5616 28.6762 14.6165 28.6762C15.0009 28.7875 15.358 28.871 15.7424 29.0101C16.2642 29.2049 16.786 29.4275 17.3352 29.6501C17.3902 29.6779 17.4451 29.6779 17.5 29.6501C18.1042 29.344 18.7633 29.0936 19.4223 28.8988C19.6695 28.8153 19.9167 28.7597 20.1638 28.704C20.2462 28.6762 20.3011 28.6484 20.3286 28.5371C20.3561 27.9527 20.6032 27.4797 21.0152 27.0623C21.2348 26.8675 21.4545 26.7006 21.7292 26.5892C21.7841 26.5614 21.8665 26.5336 21.8665 26.6449C21.8665 26.9232 21.8665 27.2014 21.8116 27.4519C21.7566 27.7579 21.5919 28.0362 21.3447 28.2588C21.2898 28.2866 21.2623 28.3423 21.2348 28.3979L21.2623 28.4258C21.482 28.3701 21.7017 28.3423 21.9214 28.2866C21.9489 28.2866 22.0038 28.2032 22.0038 28.1475C22.0587 27.8414 22.0587 27.5353 22.1411 27.2571C22.2784 26.7006 22.6354 26.311 23.1297 25.9771C23.2945 26.7006 23.2945 27.3684 22.9375 28.0084C23.1847 27.9249 23.4044 27.8414 23.6241 27.7579C23.6515 27.7579 23.6515 27.6466 23.6241 27.6188C23.4867 27.2571 23.4593 26.8675 23.5417 26.5058C23.6515 26.0606 23.9261 25.6988 24.3381 25.4206C24.5303 25.7545 24.5852 26.0884 24.5578 26.4501C24.5578 26.8119 24.3655 27.1179 24.2282 27.4519L24.2557 27.4797C24.3381 27.4519 24.393 27.424 24.4754 27.3684C24.6676 27.2571 24.8598 27.1458 25.0521 27.0345C25.1345 27.0066 25.1345 26.951 25.107 26.8675C24.9697 26.5614 24.9148 26.2275 24.9422 25.8936C24.9697 25.3927 25.1619 24.9197 25.464 24.5301C25.4915 24.5023 25.4915 24.5023 25.5464 24.4466C25.6288 24.6136 25.6837 24.7806 25.7386 24.9475C25.9034 25.4762 25.821 26.0049 25.6013 26.5058C25.5739 26.5336 25.6013 26.5893 25.5739 26.6171C25.6013 26.5893 25.6562 26.5892 25.6837 26.5614C25.9034 26.3666 26.1231 26.1719 26.3703 25.9771C26.4527 25.8936 26.4527 25.8379 26.3977 25.7545C26.0682 25.3092 25.9858 24.7806 26.0407 24.2519C26.0682 23.9179 26.2055 23.584 26.4527 23.3058C27.0568 24.0571 27.0568 24.8362 26.6449 25.671C26.6723 25.671 26.6723 25.671 26.6998 25.671C26.7822 25.5875 26.8646 25.504 26.947 25.3927C27.1667 25.1145 27.3864 24.864 27.5786 24.5858C27.6335 24.5301 27.6061 24.4745 27.5511 24.4188C27.0843 23.8345 26.947 23.1388 27.0294 22.4153C27.0568 22.2484 27.1117 22.0814 27.1667 21.8588C27.5237 22.1371 27.7434 22.471 27.8807 22.8884C27.9905 23.2779 27.9631 23.6953 27.8532 24.0849C27.8807 24.0849 27.8807 24.0849 27.9081 24.0849C27.9631 24.0014 27.9905 23.9458 28.0455 23.8623C28.2102 23.5284 28.375 23.2223 28.5398 22.8884C28.5947 22.8049 28.5947 22.7214 28.4848 22.6658C28.1278 22.4153 27.8807 22.0814 27.7159 21.664C27.6061 21.3579 27.5786 21.024 27.6335 20.6901C27.661 20.5788 27.6884 20.4675 27.7159 20.3284C28.375 20.8571 28.6771 21.5249 28.7595 22.304C28.7869 22.2762 28.8144 22.2484 28.8144 22.2206C28.9242 21.8588 29.0341 21.4971 29.1439 21.1075C29.1714 21.024 29.1439 20.9406 29.0616 20.8849C28.6771 20.6066 28.4025 20.2727 28.2377 19.8275C28.1004 19.4936 28.018 19.1319 28.0455 18.7145C28.4025 18.8258 28.6771 19.0484 28.8968 19.3266C29.1165 19.6049 29.1989 19.9388 29.2813 20.3006C29.3087 20.3006 29.3087 20.3006 29.3362 20.3006C29.3636 20.1893 29.3911 20.0779 29.4186 19.9666C29.446 19.8832 29.446 19.7719 29.4735 19.6606C29.5009 19.4379 29.5009 19.2432 29.5284 19.0206C29.5284 18.9093 29.5009 18.8814 29.4186 18.8536C29.0066 18.6866 28.7045 18.4084 28.4574 18.0466C28.2652 17.7406 28.1553 17.4066 28.1278 17.0449C28.1278 16.9336 28.1553 16.9058 28.2652 16.9336C28.5672 17.0171 28.8419 17.1284 29.089 17.3232C29.2813 17.4901 29.4186 17.6849 29.5284 17.9075C29.5284 17.9353 29.5559 17.9632 29.5833 18.0188C29.5833 17.9353 29.6108 17.8797 29.6108 17.8519C29.6108 17.5458 29.6108 17.2397 29.6108 16.9336C29.6108 16.8779 29.5559 16.8223 29.5009 16.8223C28.7595 16.6553 28.2926 16.2101 28.0729 15.4866C28.0455 15.4032 28.0455 15.2919 28.018 15.2084C27.9905 15.1249 28.0455 15.0971 28.1278 15.0971C28.7869 15.2084 29.2538 15.5979 29.5284 16.2101C29.5284 16.2379 29.5559 16.2379 29.5559 16.2658C29.5833 16.2658 29.5833 16.2658 29.6108 16.2658C29.6108 16.2101 29.6108 16.1545 29.6108 16.0988C29.5833 15.8484 29.5559 15.5979 29.5284 15.3753C29.5009 15.2362 29.5009 15.1249 29.4735 14.9858C29.446 14.8745 29.3911 14.8745 29.3087 14.8745C28.8968 14.8745 28.5123 14.7632 28.1553 14.5684C27.8258 14.4014 27.5511 14.151 27.3314 13.8449C27.2216 13.7336 27.2491 13.6779 27.3864 13.6501C27.5786 13.5945 27.7983 13.511 28.018 13.511C28.4574 13.511 28.8419 13.6779 29.1439 14.0119C29.1714 14.0397 29.1989 14.0675 29.2263 14.0953C29.2263 14.0953 29.2538 14.0953 29.2813 14.1232C29.2538 14.0397 29.2538 13.9562 29.2263 13.8727C29.089 13.4832 28.9517 13.1214 28.8144 12.7319C28.7869 12.6484 28.7595 12.6206 28.6496 12.6484C28.2102 12.7875 27.7983 12.7597 27.4138 12.5093C27.2491 12.3979 27.1392 12.2588 27.0019 12.1197C26.947 12.064 26.947 12.0084 27.0568 11.9527C27.5511 11.8136 28.0455 11.8414 28.4848 12.1753C28.5123 12.2032 28.5398 12.2032 28.5947 12.231C28.5947 12.1753 28.5947 12.1475 28.5947 12.1197C28.4299 11.758 28.2377 11.3962 28.0729 11.0345C28.018 10.951 27.9905 10.951 27.9081 10.9788C27.6061 11.1458 27.2765 11.1736 26.947 11.0623C26.59 10.951 26.2879 10.7562 25.9858 10.5336C26.5625 10.1719 27.1392 10.144 27.7434 10.478L27.7708 10.4501C27.7159 10.3388 27.661 10.2275 27.5786 10.144C27.4138 9.8936 27.2216 9.61534 27.0568 9.36491C26.9744 9.2536 26.947 9.2536 26.8371 9.33708C26.3977 9.69882 25.7661 9.83795 25.2169 9.53186C25.0521 9.42056 24.8873 9.30925 24.75 9.17012C25.464 8.83621 26.1506 8.89186 26.8646 9.1423C26.8646 9.11447 26.8371 9.08665 26.8371 9.05882C26.535 8.72491 26.233 8.39099 25.9309 8.05708C25.8485 7.9736 25.7936 7.9736 25.7112 8.05708C25.464 8.30752 25.1894 8.47447 24.8324 8.53012C24.393 8.6136 24.036 8.47447 23.679 8.27969C23.679 8.27969 23.6515 8.25186 23.6241 8.22404C23.7614 8.14056 23.8987 8.02926 24.036 7.9736C24.393 7.77882 24.8049 7.69534 25.2169 7.75099C25.2992 7.75099 25.4091 7.77882 25.4915 7.80665C25.5464 7.80665 25.6013 7.80665 25.6563 7.80665C25.6837 7.77882 25.6837 7.751 25.7112 7.72317C26.0407 8.05708 26.3703 8.41882 26.6723 8.72491C26.6449 8.44665 26.59 8.11273 26.6174 7.77882C26.6449 7.44491 26.7547 7.13882 26.947 6.83273C27.0843 6.99969 27.1667 7.19447 27.2216 7.41708C27.3589 7.89013 27.3314 8.33534 27.1667 8.78056C27.1392 8.86404 27.1117 8.94752 27.0568 9.03099C27.0019 9.11447 27.0019 9.17013 27.0843 9.2536C27.3314 9.58752 27.5786 9.92143 27.8258 10.2832C27.8532 10.311 27.8807 10.3388 27.9081 10.3666C27.8532 10.0049 27.7983 9.61534 27.8807 9.2536C27.9631 8.86404 28.1004 8.53012 28.3475 8.19621C28.4025 8.36317 28.4574 8.5023 28.5123 8.64143C28.5947 9.00317 28.6771 9.33708 28.6496 9.72665C28.6222 10.1162 28.5123 10.4501 28.2652 10.7284C28.1828 10.8119 28.1828 10.8675 28.2377 10.951C28.4025 11.2293 28.5398 11.5353 28.7045 11.8414C28.732 11.8693 28.732 11.8971 28.7869 11.9527C28.8144 11.3127 29.0616 10.784 29.5559 10.3666C29.6932 10.5893 29.7481 10.8119 29.7481 11.0623C29.7756 11.6188 29.5559 12.0919 29.1439 12.4258C29.0341 12.5093 29.0341 12.5927 29.0616 12.704C29.1989 13.0658 29.3087 13.4553 29.446 13.8171C29.446 13.8449 29.4735 13.8449 29.4735 13.9006C29.6108 13.2049 29.9953 12.704 30.5445 12.3701C30.572 12.3979 30.572 12.3979 30.572 12.3979C30.6269 12.9545 30.572 13.511 30.2424 13.984C30.1051 14.1788 29.9129 14.3458 29.6932 14.4293C29.6108 14.4571 29.5833 14.5127 29.6108 14.5684C29.6657 14.8466 29.7206 15.1249 29.7756 15.4032C29.803 15.5423 29.803 15.6814 29.8305 15.8206C29.8305 15.904 29.8854 15.9875 29.9129 16.0432C30.1051 15.264 30.572 14.7632 31.3134 14.4849C31.286 14.6519 31.286 14.8188 31.2585 14.9579C31.2036 15.2084 31.1487 15.4866 31.0388 15.7371C30.8466 16.2379 30.5445 16.5997 30.0227 16.7388C29.9953 16.7388 29.9403 16.8223 29.9403 16.8501C29.9403 17.1562 29.9678 17.4623 29.9678 17.7684C29.9678 17.7962 29.9953 17.824 29.9953 17.8797C30.4347 17.2953 31.0114 17.0449 31.7528 17.0171C31.6705 17.2119 31.5881 17.4066 31.4782 17.5458C31.3134 17.8519 31.0938 18.1579 30.8191 18.3527C30.5994 18.5197 30.3797 18.631 30.1051 18.6588C29.9403 18.6588 29.9129 18.7423 29.9129 18.8814C29.8854 19.2432 29.8305 19.6049 29.7756 20.0223C30.4072 19.3823 31.1487 19.1875 32 19.4101C31.6705 19.8832 31.3134 20.2727 30.7917 20.551C30.4621 20.7179 30.1051 20.8014 29.7206 20.7179C29.6657 20.6901 29.6383 20.7179 29.6108 20.8014C29.5284 21.0519 29.4735 21.3301 29.3911 21.5806C29.3636 21.664 29.3362 21.7475 29.3087 21.831C29.3087 21.8588 29.3087 21.8866 29.2813 21.9423C29.3362 21.9145 29.3636 21.8866 29.3911 21.8866C29.5833 21.7197 29.803 21.6362 30.0502 21.6362C30.2424 21.6362 30.4347 21.6362 30.6269 21.6362C30.9015 21.6362 31.1761 21.6084 31.4233 21.5806C31.4508 21.5806 31.5057 21.5806 31.5331 21.5806C31.5331 21.6084 31.5331 21.6362 31.5331 21.6362C31.1487 22.0258 30.7642 22.4153 30.2424 22.6101C29.8854 22.7493 29.5009 22.8049 29.1165 22.6658C29.089 22.6658 29.0066 22.6936 28.9792 22.7214C28.8419 23.0275 28.732 23.3336 28.6222 23.6119C28.6222 23.6119 28.6222 23.6397 28.6222 23.6675C28.7045 23.6397 28.7869 23.6119 28.8693 23.584C29.1165 23.5006 29.3362 23.584 29.5833 23.6397C29.9953 23.751 30.3797 23.8345 30.8191 23.9458C30.7917 23.9458 30.7642 23.9736 30.7367 23.9736C30.3523 24.2519 29.9403 24.4466 29.4735 24.5579C29.0616 24.6693 28.6496 24.6414 28.2652 24.4745C28.2102 24.4466 28.1553 24.4466 28.1004 24.5023C27.9356 24.7527 27.7708 25.0032 27.6061 25.2536C27.6061 25.2536 27.6061 25.2814 27.6061 25.3092C28.3475 25.1701 28.8968 25.5319 29.446 26.0327C29.2812 26.1162 29.1439 26.1997 28.9792 26.2553C28.7595 26.3388 28.5123 26.3945 28.2652 26.3666C27.9081 26.3388 27.5511 26.2275 27.2491 26.0327C27.0843 25.9214 27.0843 25.9214 26.9195 26.0606C26.6723 26.2832 26.4252 26.5336 26.1506 26.784C26.4801 26.8119 26.7822 26.8119 27.0843 26.9232C27.3864 27.0623 27.6061 27.2571 27.8258 27.5075C27.661 27.6466 27.4688 27.7301 27.2765 27.7858C26.6449 27.9249 26.1231 27.7023 25.6837 27.3127C25.6013 27.2292 25.5464 27.2292 25.464 27.2849C25.2169 27.4519 24.9422 27.6188 24.6676 27.7858C24.7775 27.8136 24.8598 27.8692 24.9422 27.8971C25.6013 28.0919 26.0956 28.5092 26.3977 29.1214C26.3977 29.1214 26.3977 29.1492 26.3977 29.1771C26.233 29.2049 26.0682 29.2884 25.9034 29.2884C25.2718 29.2884 24.6951 29.0936 24.3106 28.5649C24.2282 28.4536 24.1733 28.3423 24.1184 28.2032C24.0909 28.1197 24.0634 28.0919 23.9811 28.1475C23.6515 28.2866 23.322 28.3979 22.9924 28.5371C22.965 28.5649 22.91 28.5649 22.8826 28.6206C22.9375 28.6206 22.9924 28.6484 23.0474 28.6484C23.322 28.6484 23.5691 28.7875 23.7614 28.9545C24.1184 29.3162 24.4205 29.7058 24.5852 30.1788V30.2066C24.4205 30.2066 24.2282 30.2345 24.0634 30.2066C23.3769 30.1232 22.965 29.6501 22.608 29.1214C22.5256 29.0101 22.5256 28.871 22.4706 28.7597C22.4432 28.7319 22.3883 28.6762 22.3608 28.6762C22.0038 28.7319 21.6193 28.8153 21.2623 28.8988C21.2349 28.8988 21.2348 28.9266 21.2074 28.9266C21.2623 28.9545 21.2898 28.9545 21.3172 28.9823C21.7566 29.1214 22.0862 29.4275 22.3333 29.8171C22.5256 30.0953 22.6354 30.4292 22.7178 30.7632C22.7453 30.8745 22.7178 30.9023 22.608 30.9023C22.0587 30.8466 21.5644 30.624 21.2074 30.1788C20.9328 29.8727 20.7955 29.4832 20.7405 29.0936C20.7405 29.0101 20.7131 28.9823 20.6307 29.0101C19.8343 29.1492 19.0379 29.3719 18.3239 29.7892C18.1316 29.9006 18.1042 29.9006 18.3239 30.0397C18.7907 30.3458 19.2301 30.7075 19.5871 31.1527C19.8068 31.4032 19.9716 31.6536 20.1638 31.9319C20.1638 31.9597 20.1364 31.9597 20.1364 31.9875C19.9991 31.9875 19.8343 31.9597 19.697 31.9875C19.3949 32.0432 19.2027 31.904 19.0379 31.6536C18.6534 31.1249 18.1591 30.7075 17.6373 30.3179C17.6098 30.2901 17.5 30.2901 17.4725 30.3179C17.143 30.5962 16.786 30.8745 16.4839 31.1806C16.2642 31.4032 16.072 31.6536 15.8523 31.904C15.8248 31.9319 15.7974 31.9597 15.7699 31.9597C15.4953 31.9597 15.2481 31.9597 14.946 31.9597C15.0559 31.7927 15.1383 31.6814 15.2206 31.5423C15.6875 30.9023 16.2642 30.4014 16.9233 29.984C17.0331 29.9284 17.0331 29.9006 16.9233 29.8449C16.5114 29.6223 16.072 29.3997 15.6051 29.2884C15.2481 29.2049 14.8636 29.0936 14.5066 29.0101C14.4242 28.9823 14.3968 29.0101 14.3693 29.0936C14.3144 29.4832 14.2045 29.8449 13.9299 30.151C13.6553 30.4849 13.2983 30.7632 12.8589 30.8466C12.6941 30.8745 12.5568 30.9023 12.3646 30.9023C12.5568 29.9562 12.9962 29.2884 13.9025 28.9545C13.8201 28.9266 13.7926 28.8988 13.7652 28.8988C13.4631 28.8432 13.1335 28.7875 12.8314 28.704C12.7491 28.6762 12.6941 28.704 12.6667 28.8153C12.6392 28.9266 12.5843 29.0658 12.5019 29.1771C12.2273 29.5666 11.9252 29.9284 11.4858 30.0953C11.2112 30.2066 10.9091 30.2623 10.607 30.2623C10.5246 30.2623 10.4972 30.2345 10.5246 30.151C10.7169 29.6223 11.0464 29.2049 11.4858 28.8432C11.6231 28.7319 11.7879 28.6762 11.9801 28.6484C12.0625 28.6484 12.1449 28.6206 12.2547 28.5927C11.8153 28.4258 11.4309 28.2588 11.0189 28.0919C10.7992 28.7875 10.2775 29.1214 9.61837 29.2327C9.31629 29.2884 8.98674 29.2884 8.68466 29.1492C9.04167 28.3979 9.64583 27.9806 10.4422 27.7858C10.2775 27.7023 10.1676 27.6188 10.0303 27.5353C9.89299 27.4519 9.72822 27.3406 9.59091 27.2571C9.50852 27.2014 9.4536 27.2292 9.39868 27.2849C9.15152 27.5353 8.84943 27.6745 8.51989 27.7858C8.16288 27.8971 7.80587 27.8414 7.47633 27.6745C7.39394 27.6188 7.31155 27.591 7.22917 27.5075C7.66856 26.9788 8.2178 26.7284 8.90436 26.8119V26.784C8.82197 26.7284 8.76705 26.6449 8.68466 26.5892C8.49243 26.3945 8.30019 26.2275 8.10795 26.0327C8.05303 25.9771 7.99811 25.9492 7.91572 26.0049C7.6411 26.1997 7.33902 26.311 7.00947 26.3666C6.54261 26.4501 6.13068 26.311 5.71875 26.0884C5.69129 26.0884 5.69129 26.0606 5.63636 26.0606C5.85606 25.8379 6.07576 25.671 6.32292 25.5319C6.65246 25.3371 7.00947 25.2814 7.36648 25.3092C7.39394 25.3092 7.4214 25.3092 7.44886 25.2814C7.44886 25.2536 7.44886 25.1979 7.4214 25.1701C7.28409 24.9475 7.14678 24.7249 7.00947 24.5301C6.95455 24.4466 6.89962 24.4466 6.78977 24.4745C6.54261 24.5858 6.26799 24.6692 6.02083 24.6414C5.63636 24.5858 5.25189 24.4745 4.89489 24.2797C4.70265 24.1684 4.48296 24.0292 4.29072 23.9179V23.8901C4.56534 23.8345 4.83996 23.7788 5.08712 23.7232C5.27936 23.6675 5.49905 23.6119 5.69129 23.5562C5.91099 23.5006 6.13068 23.5006 6.35038 23.6119C6.37784 23.6119 6.4053 23.6119 6.46023 23.6397C6.4053 23.5006 6.35038 23.3893 6.32292 23.2779C6.24053 23.0832 6.15814 22.9162 6.10322 22.7214C6.07576 22.6379 6.02083 22.6101 5.96591 22.6379C5.33428 22.8606 4.78504 22.6379 4.26326 22.2762C4.04356 22.1092 3.82386 21.8866 3.60417 21.6919C3.54924 21.664 3.52178 21.6084 3.49432 21.5527C3.57671 21.5527 3.65909 21.5806 3.74148 21.5806C4.20833 21.6084 4.70265 21.6084 5.16951 21.6362C5.33428 21.664 5.49905 21.7753 5.63636 21.831C5.66383 21.8588 5.71875 21.8866 5.77367 21.9423C5.77367 21.8866 5.80114 21.831 5.77367 21.8032C5.69129 21.4693 5.58144 21.1353 5.47159 20.7736C5.47159 20.7458 5.3892 20.6901 5.36174 20.6901C4.73011 20.8014 4.20833 20.5788 3.74148 20.1614C3.54924 19.9666 3.35701 19.744 3.19224 19.5493C3.08239 19.744 3.02746 19.7162 3 19.6327C3 19.6606 3 19.6606 3 19.6327Z" fill="white"/>
<path d="M18.8732 14.9582C18.8457 15.0695 18.8183 15.153 18.8183 15.2643C18.7359 15.7095 18.6809 16.1269 18.5986 16.5721C18.5162 16.9617 18.4338 17.3512 18.3239 17.7408C18.1317 18.5199 17.8022 19.2434 17.3902 19.9391C17.1705 20.3008 16.9234 20.6347 16.6213 20.913C16.2094 21.2747 15.7425 21.4973 15.1658 21.4417C15.1109 21.4417 15.0559 21.386 15.001 21.3582C14.8912 21.2191 14.7813 21.0799 14.6715 20.913C14.644 20.9408 14.6166 20.9686 14.5891 21.0243C14.1772 21.5808 13.6005 21.8869 12.9139 21.9147C12.3372 21.9425 11.7605 21.9147 11.2112 21.7478C11.0465 21.6921 10.9092 21.6364 10.7444 21.5808C10.6071 21.5251 10.5522 21.4417 10.5796 21.3025C10.6071 20.9686 10.6345 20.6347 10.6895 20.273C10.6895 20.1895 10.7169 20.106 10.7444 20.0225C10.7444 19.9947 10.7993 19.9669 10.8268 19.9391C10.8542 19.9669 10.8817 19.9947 10.8817 20.0225C10.9092 20.1895 10.8817 20.3565 10.9366 20.4956C10.9916 20.8295 11.2112 21.0799 11.4859 21.2191C12.0351 21.5251 12.6393 21.6086 13.2434 21.4417C14.0398 21.2191 14.287 20.4399 14.1497 19.7999C14.0673 19.4104 13.7927 19.1321 13.5181 18.8538C13.0787 18.4365 12.5844 18.0469 12.145 17.6295C11.8429 17.3512 11.5683 17.0173 11.3486 16.6556C10.8542 15.7373 11.2112 14.4295 12.4196 14.0678C12.9688 13.9008 13.5455 13.9008 14.0948 14.0121C14.3969 14.0678 14.7264 14.1512 15.0285 14.2069C15.0559 14.2069 15.0834 14.2904 15.0834 14.3182C15.0834 14.4851 15.0559 14.6521 15.0285 14.8191C15.001 15.0138 15.001 15.1808 14.9736 15.3756C14.9736 15.4591 14.9461 15.5147 14.9186 15.5982C14.8912 15.5982 14.8912 15.5982 14.8637 15.5982C14.8362 15.5704 14.8088 15.5147 14.8088 15.4869C14.7813 14.7356 14.3419 14.5408 13.7927 14.4017C13.4357 14.3182 13.0512 14.2904 12.6942 14.4017C11.788 14.6521 11.7056 15.5704 12.0626 16.1547C12.2823 16.4886 12.5844 16.7669 12.9139 17.0173C13.3808 17.4069 13.8751 17.7408 14.287 18.2138C14.6166 18.6034 14.8912 18.993 14.9461 19.5217C15.001 19.8556 14.9736 20.1895 14.8637 20.5234C14.8362 20.5791 14.8363 20.6347 14.8088 20.6904C15.1383 20.746 15.4404 20.8017 15.7425 20.8295C16.072 20.8573 16.3192 20.7182 16.5389 20.4956C17.1431 19.8834 17.5001 19.1321 17.7747 18.3251C17.9395 17.8243 18.1042 17.3512 18.2141 16.8504C18.3239 16.4051 18.3789 15.9599 18.4338 15.5425C18.4887 15.2086 18.5162 14.8747 18.5436 14.5408C18.5711 14.3182 18.4887 14.2347 18.269 14.2625C17.8845 14.2904 17.5275 14.3738 17.1705 14.4851C16.6487 14.6799 16.1819 14.9304 15.8523 15.3756C15.6052 15.7095 15.4953 16.0991 15.6327 16.5165C15.6876 16.7112 15.8523 16.8504 15.9622 17.0173C16.0446 17.1286 16.0995 17.2678 16.072 17.4069C16.0171 17.6017 15.7425 17.6573 15.5503 17.5182C15.358 17.3512 15.2482 17.1565 15.2207 16.906C15.0559 15.9599 15.3855 15.2086 16.1544 14.6521C16.7037 14.2347 17.3078 14.0399 17.9669 13.9565C18.3514 13.9008 18.7359 13.9008 19.0929 13.8451C19.2027 13.8451 19.34 13.8173 19.4499 13.8173C19.6421 13.8173 19.6696 13.8451 19.6696 14.0399C19.6696 14.2904 19.697 14.5408 19.7245 14.7912C19.7245 14.986 19.752 15.153 19.752 15.3478C19.7794 15.5982 19.7794 15.8208 19.7794 16.0712C19.8069 16.4886 19.8344 16.8782 19.8618 17.2956C19.8893 17.713 19.9167 18.1304 19.9442 18.5478C19.9442 18.7704 19.9717 18.993 19.9991 19.1878C19.9991 19.2156 20.0266 19.2434 20.0541 19.2991C20.1364 19.1599 20.1914 19.0765 20.2737 18.9651C20.4934 18.6034 20.6857 18.2695 20.9054 17.9078C21.0152 17.713 21.1251 17.4904 21.2624 17.3234C21.6743 16.7391 22.0588 16.1269 22.4982 15.5704C22.7728 15.1808 23.1023 14.8469 23.4319 14.513C23.734 14.1791 24.091 13.9008 24.4205 13.5947C24.448 13.5669 24.4755 13.5669 24.5304 13.5391C24.5304 13.5947 24.5304 13.6504 24.5029 13.6782C24.3656 14.1512 24.2008 14.6243 24.0635 15.0973C23.8713 15.7651 23.7065 16.433 23.5417 17.073C23.4319 17.4904 23.322 17.9078 23.2122 18.353C23.02 19.1043 22.8552 19.8834 22.6904 20.6347C22.663 20.8017 22.663 20.8295 22.8552 20.8573C23.2397 20.9408 23.5967 20.9686 23.9811 20.8851C24.0635 20.8573 24.091 20.913 24.1184 20.9965C24.1459 21.0799 24.1184 21.1078 24.0635 21.1356C24.0086 21.1634 23.9262 21.1634 23.8713 21.1634C23.4319 21.1356 23.02 21.1078 22.5806 21.1078C22.3334 21.1078 22.0862 21.1356 21.8391 21.1356C21.7842 21.1356 21.7567 21.1356 21.6743 21.1356C21.7018 21.0243 21.7018 20.9408 21.7292 20.8573C21.8391 20.4678 21.9489 20.106 22.0313 19.7165C22.1961 19.0486 22.3883 18.3808 22.5531 17.7408C22.663 17.3512 22.8003 16.9338 22.9101 16.5443C23.02 16.1825 23.1023 15.8208 23.2122 15.4591C23.2122 15.4591 23.1847 15.4591 23.1847 15.4312C23.1298 15.4869 23.1023 15.5147 23.0474 15.5704C22.7728 15.9321 22.4707 16.2938 22.2236 16.6834C21.9215 17.1008 21.6469 17.5182 21.3722 17.9634C20.9054 18.7425 20.4385 19.5217 19.9991 20.3008C19.8618 20.5234 19.7245 20.746 19.5872 20.9686C19.5597 20.9965 19.5597 21.0521 19.5323 21.0799C19.5048 21.1078 19.4773 21.1078 19.4499 21.1356C19.4499 21.1078 19.4224 21.0799 19.4224 21.0521C19.395 20.746 19.3675 20.4399 19.3675 20.1338C19.34 19.6886 19.3126 19.2712 19.2851 18.826C19.2576 18.5756 19.2302 18.2973 19.2302 18.0469C19.1753 17.4069 19.1203 16.7391 19.0654 16.0991C19.038 15.7651 19.0105 15.4312 18.983 15.0695C18.983 15.0417 18.983 15.0138 18.983 14.986C18.9281 14.9582 18.9006 14.9582 18.8732 14.9582Z" fill="white"/>
<path d="M13.6278 8.0293C13.6827 8.19625 13.7651 8.33538 13.82 8.50234C13.5179 8.6693 13.2159 8.80843 12.9138 8.97538C12.1998 9.36495 11.5956 9.86582 11.0189 10.4223C10.5795 10.8676 10.195 11.3406 9.83802 11.8693C9.31624 12.6484 8.93177 13.4554 8.68461 14.3458C8.60222 14.6519 8.5473 14.9858 8.46491 15.2919C8.3276 15.8206 8.3276 16.3493 8.30014 16.878C8.30014 17.2676 8.3276 17.6571 8.38252 18.0189C8.40998 18.2415 8.43745 18.4641 8.46491 18.6589C8.51983 18.9649 8.60222 19.2989 8.68461 19.6049C8.79446 19.9945 8.93177 20.3562 9.09654 20.7458C9.31624 21.3023 9.64578 21.8032 10.0028 22.2762C10.1676 22.4989 10.3323 22.7493 10.4971 22.9997C10.8541 23.4449 11.266 23.8345 11.7054 24.1962C12.5018 24.8641 13.4081 25.3649 14.3967 25.6989C14.8087 25.838 15.2206 25.9493 15.66 26.0328C16.017 26.1162 16.4015 26.1441 16.7585 26.1719C17.0606 26.1997 17.3352 26.2276 17.6373 26.2276C17.9393 26.2276 18.2414 26.1997 18.516 26.1441C18.9829 26.0606 19.4498 25.9771 19.8892 25.8658C20.8229 25.6154 21.6742 25.198 22.4706 24.6415C23.0198 24.2519 23.5416 23.8345 24.0085 23.3336C24.695 22.6102 25.2443 21.7754 25.6562 20.8293C25.8484 20.3841 25.9857 19.9389 26.1231 19.4936C26.2878 18.9649 26.3977 18.4084 26.4251 17.8797C26.4526 17.4067 26.4526 16.9336 26.4526 16.4606C26.4526 16.1267 26.3977 15.8206 26.3428 15.4867C26.2878 15.1249 26.178 14.7632 26.0681 14.4015C25.9583 14.0119 25.821 13.6502 25.6837 13.2884C25.4914 12.7876 25.2168 12.3145 24.9147 11.8693C24.5852 11.3684 24.2282 10.9232 23.8162 10.5058C23.267 9.9493 22.6354 9.44843 21.9488 9.05886C21.6193 8.89191 21.2897 8.72495 20.9602 8.53017C20.9327 8.53017 20.9327 8.50234 20.8778 8.47451C20.9327 8.33538 21.0151 8.16843 21.07 8.0293C23.9261 9.14234 27.1392 12.4815 26.9744 17.4067C26.892 19.6328 26.1231 21.6084 24.695 23.3058C23.3494 24.8919 21.6742 25.9771 19.6695 26.4502C16.9507 27.118 14.3693 26.6728 12.0075 25.0867C10.0577 23.7789 8.73953 21.9423 8.1079 19.6606C7.42135 17.2397 7.64105 14.9023 8.73953 12.6484C9.94786 10.2832 11.8428 8.80843 13.6278 8.0293Z" fill="white"/>
<path d="M15.0834 5.35826C14.9736 5.49739 14.8363 5.63652 14.7813 5.80348C14.6166 6.19304 14.699 6.69391 15.1109 6.86087C15.2757 6.91652 15.4679 6.94435 15.6327 6.83304C15.7974 6.72174 15.8249 6.55478 15.77 6.36C15.7425 6.24869 15.8249 6.22087 15.9073 6.22087C16.127 6.22087 16.3192 6.16522 16.5115 6.10956C16.9783 5.94261 17.0332 5.52522 16.841 5.13565C16.5938 4.66261 16.2368 4.60696 15.7974 4.80174C15.77 4.80174 15.77 4.82956 15.7425 4.82956C15.77 4.52348 15.9897 4.38435 16.2643 4.35652C16.3741 4.35652 16.5115 4.38435 16.6213 4.38435C16.7586 4.41217 16.7586 4.38435 16.7586 4.24522C16.7037 3.88348 16.7861 3.57739 17.0332 3.29913C17.1156 3.18783 17.2255 3.10435 17.3353 3.02087C17.3628 2.99304 17.4177 2.99304 17.4452 3.02087C17.7472 3.18783 17.9395 3.43826 18.0219 3.77217C18.0493 3.9113 18.0493 4.07826 18.0493 4.21739C18.0493 4.38435 18.0493 4.38435 18.2141 4.35652C18.4063 4.3287 18.5711 4.30087 18.7633 4.38435C18.9281 4.46783 19.038 4.57913 19.0654 4.77391C18.9556 4.74609 18.8732 4.71826 18.7633 4.69043C18.4338 4.60696 18.1317 4.74609 17.9669 5.05217C17.8022 5.35826 17.8571 5.74783 18.1317 5.94261C18.2416 6.02609 18.3789 6.05391 18.5162 6.08174C18.6535 6.10956 18.8183 6.13739 18.9556 6.16522C19.038 6.19304 19.0654 6.22087 19.038 6.33217C18.983 6.55478 19.0929 6.74956 19.3126 6.83304C19.7245 6.97217 20.0541 6.77739 20.1639 6.33217C20.2188 6.05391 20.1639 5.66435 19.8344 5.49739C19.8069 5.46956 19.7794 5.46956 19.752 5.44174C19.8344 5.33043 20.0815 5.21913 20.2463 5.27478C20.3836 5.33043 20.5209 5.41391 20.6308 5.49739C20.7132 5.58087 20.7406 5.55304 20.823 5.49739C21.0702 5.27478 21.3722 5.13565 21.7293 5.13565C21.894 5.13565 22.1137 5.24696 22.251 5.35826C22.1686 5.41391 22.0863 5.46956 22.0313 5.49739C21.3448 5.94261 20.8505 6.52696 20.4935 7.25043C20.3562 7.52869 20.2463 7.77913 20.1365 8.05739C20.109 8.14087 20.0815 8.14087 19.9991 8.14087C19.4774 8.00174 18.9281 7.89043 18.4063 7.86261C17.8846 7.83478 17.3628 7.83478 16.841 7.86261C16.4291 7.89043 16.0171 7.94609 15.6052 8.00174C15.3855 8.02956 15.1658 8.08522 14.9461 8.16869C14.8637 8.19652 14.8088 8.16869 14.7813 8.08522C14.699 7.89043 14.6166 7.69565 14.5616 7.5287C14.3969 7.1113 14.1497 6.77739 13.8751 6.44348C13.5455 6.02609 13.1611 5.69217 12.7491 5.38609C12.7491 5.38609 12.7491 5.35826 12.7217 5.33043C12.8315 5.21913 12.9963 5.1913 13.1336 5.16348C13.5455 5.10783 13.9026 5.21913 14.1497 5.58087C14.2046 5.63652 14.2321 5.63652 14.287 5.58087C14.4793 5.35826 14.7264 5.27478 15.0285 5.30261C15.001 5.33043 15.056 5.35826 15.0834 5.35826ZM17.3902 7.19478C17.6374 7.19478 17.8846 7 17.8571 6.74956C17.8571 6.4713 17.6374 6.27652 17.3902 6.27652C17.1705 6.27652 16.9508 6.4713 16.9234 6.69391C16.9508 6.97217 17.1431 7.19478 17.3902 7.19478Z" fill="white"/>
<path d="M25.3819 7.80666C25.2995 7.77883 25.2995 7.69535 25.2995 7.61188C25.272 7.47275 25.2171 7.30579 25.1622 7.16666C24.9699 6.72144 24.9699 6.27622 25.1072 5.80318C25.1347 5.74753 25.1347 5.69188 25.1347 5.6084H25.1622C25.2445 5.74753 25.3544 5.88666 25.4093 6.02579C25.5741 6.33188 25.6839 6.63796 25.6839 6.9997C25.6839 7.25014 25.629 7.50057 25.4368 7.66753C25.4093 7.72318 25.4093 7.77883 25.3819 7.80666Z" fill="white"/>
<path d="M24.75 7.33428C23.9536 7.58471 23.2946 7.05602 23.2671 6.41602C23.4319 6.44384 23.5966 6.47167 23.7614 6.49949C23.8713 6.52732 23.9811 6.55515 24.091 6.58297C24.4754 6.69428 24.6402 7.00036 24.75 7.33428Z" fill="white"/>
<path d="M11.5682 6.3877C11.5133 6.66596 11.4035 6.91639 11.2112 7.08335C10.9091 7.36161 10.5247 7.38943 10.1402 7.33378C10.0578 7.33378 10.0578 7.30596 10.0853 7.22248C10.2226 6.83291 10.4697 6.55465 10.8817 6.499C11.0739 6.47117 11.2661 6.41552 11.4584 6.3877C11.5133 6.3877 11.5408 6.3877 11.5682 6.3877Z" fill="white"/>
<path d="M17.4339 6.7197C17.4395 6.72609 17.4429 6.73186 17.4449 6.73637C17.4443 6.73845 17.4437 6.74043 17.443 6.74233C17.4422 6.74485 17.4413 6.74721 17.4404 6.74941C17.4394 6.75175 17.4384 6.75392 17.4374 6.75589C17.4313 6.76832 17.4256 6.77368 17.4244 6.77478C17.4243 6.77481 17.4243 6.77486 17.4242 6.77492C17.4239 6.77535 17.4232 6.77637 17.4177 6.77637C17.4097 6.77637 17.4017 6.77327 17.3952 6.76695C17.3934 6.76521 17.3917 6.76323 17.3902 6.76108C17.3888 6.75891 17.3874 6.75657 17.3864 6.75413C17.3855 6.75207 17.3851 6.75044 17.3848 6.74941C17.3847 6.7489 17.3846 6.74853 17.3846 6.74833C17.3846 6.74452 17.385 6.74061 17.3856 6.73667C17.3865 6.73084 17.3881 6.72497 17.3902 6.71932C17.391 6.71741 17.3918 6.71552 17.3926 6.71366C17.396 6.70646 17.3997 6.70125 17.4027 6.69771C17.4039 6.69817 17.4052 6.6987 17.4065 6.6993C17.4103 6.70101 17.4141 6.70309 17.4177 6.7055C17.4236 6.70942 17.4291 6.71422 17.4339 6.7197Z" stroke="white"/>
<defs>
<radialGradient id="paint0_radial_98_4980" cx="0" cy="0" r="1" gradientUnits="userSpaceOnUse" gradientTransform="translate(9.29645 37.6957) rotate(-90) scale(34.6876 32.2619)">
<stop stop-color="#FFDD55"/>
<stop offset="0.1" stop-color="#FFDD55"/>
<stop offset="0.5" stop-color="#FF543E"/>
<stop offset="1" stop-color="#C837AB"/>
</radialGradient>
<radialGradient id="paint1_radial_98_4980" cx="0" cy="0" r="1" gradientUnits="userSpaceOnUse" gradientTransform="translate(-5.86263 2.52135) rotate(78.6807) scale(15.5055 63.9138)">
<stop stop-color="#3771C8"/>
<stop offset="0.128" stop-color="#3771C8"/>
<stop offset="1" stop-color="#6600FF" stop-opacity="0"/>
</radialGradient>
</defs>
</svg>
