<svg version="1.1" xmlns="http://www.w3.org/2000/svg" xmlns:xlink="http://www.w3.org/1999/xlink" viewBox="140 70 420 420" >  <g fill='#fff'>   <path d="m560 105v105c0 14.523-11.727 26.25-26.25 26.25s-26.25-11.727-26.25-26.25v-87.5h-87.5c-14.523 0-26.25-11.727-26.25-26.25s11.727-26.25 26.25-26.25h105c19.336 0 35 15.664 35 35z"/>   <path d="m560 350v105c0 19.336-15.664 35-35 35h-105c-14.523 0-26.25-11.727-26.25-26.25s11.727-26.25 26.25-26.25h87.5v-87.5c0-14.523 11.727-26.25 26.25-26.25s26.25 11.727 26.25 26.25z"/>   <path d="m385 341.25c0 19.328-15.672 35-35 35s-35-15.672-35-35 15.672-35 35-35 35 15.672 35 35"/>   <path d="m385 218.75c0 19.328-15.672 35-35 35s-35-15.672-35-35 15.672-35 35-35 35 15.672 35 35"/>   <path d="m280 437.5c14.523 0 26.25 11.727 26.25 26.25s-11.727 26.25-26.25 26.25h-105c-19.336 0-35-15.664-35-35v-105c0-14.523 11.727-26.25 26.25-26.25s26.25 11.727 26.25 26.25v87.5z"/>   <path d="m280 70c14.523 0 26.25 11.727 26.25 26.25s-11.727 26.25-26.25 26.25h-87.5v87.5c0 14.523-11.727 26.25-26.25 26.25s-26.25-11.727-26.25-26.25v-105c0-19.336 15.664-35 35-35z"/>  </g> </svg>